<?xml version="1.0" encoding="utf-8"?>
<svg xmlns="http://www.w3.org/2000/svg" width="375" height="375" viewBox="0 0 375 375" style="max-height: 10rem; width: auto; height: auto;">
  <style>
    /* Disable clipping on drops container to allow animation beyond bounds */
    g[clip-path="url(#d)"] > title:first-child {
      display: block;
    }
    g[clip-path="url(#d)"]:has(> title:first-child) {
      clip-path: none !important;
    }
    
    #drop-1, #drop-2, #drop-3, #drop-4 {
      animation: spit-drop 2s cubic-bezier(0.25, 0.46, 0.45, 0.94) infinite;
      transform-origin: center;
      transform-box: fill-box;
      overflow: visible;
    }
    #drop-1 { animation-delay: 0s; }
    #drop-2 { animation-delay: 0.25s; }
    #drop-3 { animation-delay: 0.5s; }
    #drop-4 { animation-delay: 0.75s; }
    @keyframes spit-drop {
      0% { opacity: 0; transform: scale(0.8) translate(0px, 0px) rotate(0deg); }
      5% { opacity: 0.7; transform: scale(1) translate(5px, -2px) rotate(15deg); }
      20% { opacity: 1; transform: scale(1.1) translate(20px, 5px) rotate(45deg); }
      40% { opacity: 1; transform: scale(1.05) translate(45px, 25px) rotate(90deg); }
      60% { opacity: 0.9; transform: scale(0.95) translate(70px, 55px) rotate(135deg); }
      75% { opacity: 0.7; transform: scale(0.88) translate(85px, 80px) rotate(180deg); }
      85% { opacity: 0.5; transform: scale(0.82) translate(95px, 100px) rotate(225deg); }
      92% { opacity: 0.3; transform: scale(0.76) translate(103px, 115px) rotate(270deg); }
      97% { opacity: 0.1; transform: scale(0.72) translate(108px, 125px) rotate(315deg); }
      100% { opacity: 0; transform: scale(0.7) translate(110px, 130px) rotate(360deg); }
    }
  </style>
  <defs>
    <clipPath id="c">
      <path d="M0 0h375v375H0Z" clip-rule="evenodd"/>
    </clipPath>
    <clipPath id="d">
      <path d="M114.24 0h146.64v354H114.24Z" clip-rule="evenodd"/>
    </clipPath>
    <clipPath id="e">
      <path d="M119.076 16.745h58.647v118.09h-58.647Z"/>
    </clipPath>
    <clipPath id="f">
      <path d="M149.898 134.832c-14.388-68.529-35.895-105.018-29.666-113.77 3.857-5.487 20.618-5.042 26.7-1.037 6.081 4.153 6.823 16.612 9.79 25.66 3.114 9.79 5.784 19.284 8.603 31.002 3.708 14.98 16.613 43.312 10.828 52.212-4.005 6.23-26.255 5.933-26.255 5.933"/>
    </clipPath>
    <clipPath id="g">
      <path d="M119.04 16.56h58.8v118.32h-58.8Z"/>
    </clipPath>
    <clipPath id="h">
      <path d="M145.839 18.635h53.068v87.202H145.84Z"/>
    </clipPath>
    <clipPath id="i">
      <path d="M172 105.61c-18.987-61.26-27.442-67.193-25.958-72.68 1.631-5.934 16.91-15.575 22.694-14.092 5.488 1.483 7.713 12.311 11.422 21.508 5.933 14.24 22.99 47.465 17.65 57.403-3.559 6.675-25.808 7.862-25.808 7.862"/>
    </clipPath>
    <clipPath id="j">
      <path d="M145.68 18.48h53.28v87.36h-53.28Z"/>
    </clipPath>
    <clipPath id="k">
      <path d="M176.593 4.161h48.78v101.953h-48.78Z"/>
    </clipPath>
    <clipPath id="l">
      <path d="M176.746 102.051c7.268-44.35 10.235-89.443 21.36-96.118 6.674-4.005 21.952-.296 25.957 6.23 6.23 10.235-12.756 46.427-16.168 63.634-2.225 11.421 1.187 24.622-4.301 28.924-5.192 4.153-26.848-2.67-26.848-2.67"/>
    </clipPath>
    <clipPath id="m">
      <path d="M176.64 4.08h48.96v102.24h-48.96Z"/>
    </clipPath>
    <clipPath id="n">
      <path d="M180.708 24.216h68.507v99.816h-68.507Z"/>
    </clipPath>
    <clipPath id="o">
      <path d="M180.751 110.06c20.915-31.593 23.14-36.043 25.661-41.235 2.67-5.043 5.043-9.493 7.417-15.575 2.966-7.713 2.225-23.88 8.158-27.44 5.785-3.412 22.843-.446 26.254 5.191 4.005 6.675-6.526 25.068-11.421 36.786-4.747 11.421-11.57 22.843-17.503 32.632-5.043 8.604-8.752 21.657-15.278 23.288-6.378 1.483-23.288-13.646-23.288-13.646"/>
    </clipPath>
    <clipPath id="p">
      <path d="M180.72 24h68.64v100.08h-68.64Z"/>
    </clipPath>
    <clipPath id="q">
      <path d="M184.004 78.16h53.802v62.938h-53.802Z"/>
    </clipPath>
    <clipPath id="r">
      <path d="M237.71 88.701c-35.6 60.816-50.432 54.882-53.102 48.06-4.154-10.68 16.464-53.4 28.034-57.998 7.416-2.818 25.068 9.938 25.068 9.938"/>
    </clipPath>
    <clipPath id="s">
      <path d="M183.84 78h54v63.12h-54Z"/>
    </clipPath>
    <clipPath id="t">
      <path d="M155.046 91.772h38.7v53.003h-38.7Z"/>
    </clipPath>
    <clipPath id="u">
      <path d="M175.56 91.816c23.139 35.154 19.134 51.322 14.832 52.806-3.56 1.186-10.234-7.268-15.574-12.312-6.378-6.23-20.173-16.02-19.728-22.843.593-6.526 20.47-17.65 20.47-17.65"/>
    </clipPath>
    <clipPath id="v">
      <path d="M155.04 91.68h38.88v53.28h-38.88Z"/>
    </clipPath>
    <clipPath id="w">
      <path d="M143.64 116.16h49.135v69.994h-49.134Z"/>
    </clipPath>
    <clipPath id="x">
      <path d="M166.956 186.006c-18.838-45.39-25.81-58.146-22.25-63.634 3.412-5.191 21.064-8.01 26.404-4.45 5.191 3.412 2.818 16.02 5.933 24.771 3.56 10.532 18.096 26.255 15.13 33.523-2.522 6.081-25.217 9.79-25.217 9.79"/>
    </clipPath>
    <clipPath id="y">
      <path d="M143.52 116.16h49.44v70.08h-49.44Z"/>
    </clipPath>
    <clipPath id="z">
      <path d="M152.765 113.966h56.077v69.256h-56.077Z"/>
    </clipPath>
    <clipPath id="A">
      <path d="M169.775 114.214c24.622 21.211 27.292 23.881 29.962 27.886 2.967 4.153 6.378 8.752 7.565 14.388 1.483 6.823 2.818 20.766-1.632 24.623-4.746 4.005-23.732 1.631-26.699-2.225-2.077-2.67 2.818-8.455 2.225-12.46-.742-4.301-3.115-8.455-6.527-12.756-4.746-6.082-20.914-11.718-21.656-18.393-.593-6.527 16.762-21.063 16.762-21.063"/>
    </clipPath>
    <clipPath id="B">
      <path d="M152.64 114h56.4v69.36h-56.4Z"/>
    </clipPath>
    <clipPath id="C">
      <path d="M178.904 127.886h44.76v54.537h-44.76Z"/>
    </clipPath>
    <clipPath id="D">
      <path d="M178.971 173.843c25.513-54.29 40.642-48.356 43.609-41.533 4.302 9.493-8.306 44.796-17.8 49.394-6.823 3.412-25.809-7.861-25.809-7.861"/>
    </clipPath>
    <clipPath id="E">
      <path d="M178.8 127.68h44.88v54.96H178.8Z"/>
    </clipPath>
    <clipPath id="F">
      <path d="M166.641 187.672h33.517v140.914H166.64Z"/>
    </clipPath>
    <clipPath id="G">
      <path d="M200.034 188.379c.445 41.68-1.78 44.202-2.67 49.69-1.038 7.565 0 18.393-.593 27.738-.742 9.493-4.005 19.728-3.412 28.628.445 7.861 5.488 16.761 5.192 21.804 0 2.67-.89 4.302-1.929 6.082-1.186 1.632-2.67 3.412-4.746 4.302-2.374 1.186-6.527 1.928-9.345 1.483-2.077-.297-4.005-1.187-5.637-2.67-2.076-1.928-4.598-5.192-4.746-8.307-.148-3.856 3.856-13.498 6.526-13.646 3.56-.148 9.642 23.288 13.202 23.288 2.67-.148 5.933-13.943 6.675-13.795.445.148.148 4.45-.594 6.378-.593 1.929-1.928 4.005-3.411 5.34-1.484 1.484-3.56 2.67-5.637 3.263-1.928.594-4.301.594-6.378.149-1.928-.297-4.153-1.335-5.637-2.67-1.631-1.335-2.67-2.818-3.856-5.192-2.077-4.301-4.302-13.201-5.34-19.58-.89-5.636-1.187-11.272-.89-16.464.297-4.895 1.78-8.603 2.373-14.091.742-7.565 0-18.096.89-27.441.89-10.087 4.302-21.953 4.747-31.298.148-7.565-5.043-16.613-1.632-20.618 3.857-4.598 26.848-2.373 26.848-2.373"/>
    </clipPath>
    <clipPath id="H">
      <path d="M166.56 187.44h33.6v141.12h-33.6Z"/>
    </clipPath>
    <clipPath id="I">
      <path d="M164.007 167.897h39.748v42.587h-39.748Z"/>
    </clipPath>
    <clipPath id="J">
      <path d="M171.258 210.332c-8.9-24.92-8.158-35.303-4.45-39.16 3.115-3.114 9.79-3.856 14.388-2.818 5.192 1.039 11.273 5.637 14.981 10.235 3.709 4.895 9.345 15.278 6.972 18.69-2.67 3.856-23.733 2.818-26.7.148-1.335-1.186-1.186-3.411-.445-5.043 1.187-2.967 9.049-10.235 12.312-9.345 3.56.89 9.641 12.608 7.861 16.91-1.928 5.34-24.92 10.383-24.92 10.383"/>
    </clipPath>
    <clipPath id="K">
      <path d="M163.92 167.76h39.84v42.72h-39.84Z"/>
    </clipPath>
    <clipPath id="L">
      <path d="M203.505 288.413h24.943v26.939h-24.943Z"/>
    </clipPath>
    <clipPath id="M">
      <path d="M209.379 288.502c17.65 13.498 18.393 14.981 18.69 17.058.444 2.076.444 5.488-.742 7.12-.89 1.483-2.967 2.67-5.044 2.67-3.115-.149-11.421-5.044-11.57-7.565-.148-2.225 5.489-6.972 7.862-6.824 1.78 0 5.192 3.56 4.895 4.599-.297.89-3.56 1.631-5.785 1.186-3.856-.593-13.498-6.081-14.091-9.493-.594-2.67 5.785-8.751 5.785-8.751"/>
    </clipPath>
    <clipPath id="N">
      <path d="M203.28 288.48h25.2v26.88h-25.2Z"/>
    </clipPath>
    <clipPath id="O">
      <path d="M200.5 271.086h51.705v23.625H200.5Z"/>
    </clipPath>
    <clipPath id="P">
      <path d="M233.853 278.119c11.422 1.335 13.498 2.966 14.833 4.895 1.187 2.076 2.373 5.636 1.78 7.713-.593 1.631-2.967 3.411-4.45 3.856-1.186.149-2.818-.148-3.56-1.038-1.186-1.187-.741-4.747-1.631-6.527-.89-1.631-1.484-3.263-3.709-4.153-5.191-2.225-26.106 2.522-31.297 1.632-1.78-.149-2.522-.445-3.412-1.187-.89-.741-1.631-2.076-1.78-3.263-.148-1.187.149-2.67.89-3.56.594-1.038 1.483-1.632 2.967-2.225 2.67-.742 8.603-.297 12.163 0 2.521.148 4.301 0 6.971.89 4.005 1.483 14.388 7.268 14.092 8.307-.149.741-8.9.741-10.68-1.187-1.632-1.928-1.632-8.752 0-10.383 1.632-1.632 6.971-.297 9.79.296 2.225.594 4.153 1.187 5.933 2.819 2.373 2.225 5.636 7.416 5.933 10.531.297 2.077-.445 4.302-1.632 5.785-1.186 1.335-3.56 1.928-5.488 2.373-1.78.297-3.263.445-5.488-.148-4.302-1.038-11.57-7.565-17.206-8.9-4.895-1.335-11.125 1.187-14.24-.297-2.077-.89-3.56-2.818-4.005-4.301-.296-1.187.149-2.67.89-3.56.594-1.038 1.335-1.483 2.967-2.225 4.301-1.483 19.134-2.522 25.81-2.373 4.3 0 7.119.148 10.53 1.335 3.56 1.186 8.455 3.56 10.087 6.081 1.335 1.929 1.335 4.302 1.187 6.378-.149 1.78-1.187 5.192-1.78 5.192-.594.148-1.929-5.785-1.929-5.785s2.374 4.005 2.077 5.637c-.445 1.483-2.967 3.411-4.45 3.856-1.186.149-2.818-.296-3.56-1.038-.741-.593-.148-2.077-1.038-2.818-1.335-1.335-6.675-.297-8.01-2.077-1.483-2.077.445-10.531.445-10.531"/>
    </clipPath>
    <clipPath id="Q">
      <path d="M200.4 270.96h51.84v23.76H200.4Z"/>
    </clipPath>
    <clipPath id="R">
      <path d="M199.818 256.025h17.375v16.822h-17.375Z"/>
    </clipPath>
    <clipPath id="S">
      <path d="M199.886 263.582c10.68-6.526 13.498-8.158 14.833-7.268 1.78 1.187 3.114 8.603 2.076 10.235-.593.89-2.521 0-3.856.593-2.374.89-5.785 6.082-8.01 5.637-2.225-.594-5.043-9.197-5.043-9.197"/>
    </clipPath>
    <clipPath id="T">
      <path d="M199.68 255.84h17.52v17.04h-17.52Z"/>
    </clipPath>
    <clipPath id="U">
      <path d="M223.199 252.845h9.31v11.75h-9.31Z"/>
    </clipPath>
    <clipPath id="V">
      <path d="M224.657 252.903c11.421 4.153 7.564 10.086 5.34 11.124-1.78.89-5.34.594-6.379-.741-1.335-1.632 1.039-10.383 1.039-10.383"/>
    </clipPath>
    <clipPath id="W">
      <path d="M222.96 252.72h9.6v12h-9.6Z"/>
    </clipPath>
    <clipPath id="X">
      <path d="M122.277 19.35h53.07v302.3h-53.07Z"/>
    </clipPath>
    <clipPath id="Y">
      <path d="M165.621 320.393c-.148-15.872 3.412-26.403 4.45-33.671 1.039-6.082 1.484-9.345 1.632-16.613.593-13.647.445-40.643-1.632-59.48-1.78-16.91-4.746-32.04-9.048-48.356-4.598-17.206-13.053-36.193-18.096-52.064-4.153-13.053-7.268-22.843-10.383-36.044-3.857-15.871-11.57-48.207-9.79-53.102.297-1.038 1.038-1.483 1.632-1.483.445 0 1.335.741 1.335 1.335 0 .445-.742 1.631-1.335 1.631-.445.148-1.632-.89-1.632-1.335.148-.445 1.78-1.483 2.67-.89 3.857 2.077 5.043 33.523 10.086 53.696 6.824 26.699 23.14 66.006 29.518 91.816 4.598 18.393 6.823 30.704 8.455 47.762 1.78 19.58 2.373 45.834.89 63.634-1.187 13.201-5.933 26.106-6.378 33.819-.297 4.005 1.335 7.565.593 9.196-.297.742-.89 1.335-1.483 1.335-.445 0-1.484-1.186-1.484-1.186"/>
    </clipPath>
    <clipPath id="Z">
      <path d="M122.16 19.44h53.28V321.6h-53.28Z"/>
    </clipPath>
    <clipPath id="aa">
      <path d="M122.088 11.45h76.535v165.825h-76.535Z"/>
    </clipPath>
    <clipPath id="ab">
      <path d="M123.347 18.245c19.728-6.379 20.173-6.379 20.618-5.785 2.373 2.818 2.818 21.36 5.34 31.297 2.522 9.642 6.675 20.618 9.79 27.738 1.928 4.45 3.856 6.23 5.636 10.68 2.374 6.526 3.709 17.058 6.23 24.92 2.225 7.564 4.302 13.2 7.713 21.804 5.044 12.608 20.173 41.829 19.877 46.575-.149.89-.594 1.335-1.039 1.484-.445.148-1.78-.445-1.928-.89-.148-.594.593-1.78 1.038-1.929.594-.148 1.78.742 1.78 1.187.149.445-.593 1.78-1.186 1.78-1.929-.148-7.269-13.053-10.532-20.025-3.263-7.12-5.785-14.09-8.751-21.952-3.412-8.752-7.565-19.135-10.235-28.183-2.373-8.01-3.263-17.058-5.637-23.288-1.631-4.598-3.856-6.675-5.784-11.421-3.115-7.12-7.269-18.393-9.79-27.738-2.522-9.345-5.043-23.14-5.043-28.48 0-1.928.148-3.856.741-4.153.445-.296 1.78.149 1.78.594.297.741-1.483 2.818-3.115 3.856-2.225 1.632-7.12 2.67-10.235 3.56-2.67.594-6.081 1.78-7.416 1.335-.593-.296-1.038-.89-1.038-1.335 0-.593 1.186-1.631 1.186-1.631"/>
    </clipPath>
    <clipPath id="ac">
      <path d="M122.16 11.52h76.56v165.6h-76.56Z"/>
    </clipPath>
    <clipPath id="ad">
      <path d="M183.641 6.564h67.198V177.64h-67.198Z"/>
    </clipPath>
    <clipPath id="ae">
      <path d="M183.718 141.358c3.411-14.24 9.493-24.622 12.311-33.225s3.263-17.503 5.933-26.552c2.967-9.79 6.675-21.656 11.273-30.259 3.857-7.268 9.345-12.163 13.202-18.838 4.005-6.823 5.636-17.8 10.531-21.656 3.56-2.967 11.421-5.191 13.053-3.263 2.522 2.67-6.526 17.503-9.048 26.848-2.522 9.79-2.67 17.65-6.082 30.556-5.933 23.436-22.99 79.356-30.407 97.304-2.967 7.268-5.488 14.091-7.565 14.685-.89.296-2.522-.89-2.522-1.335s1.335-1.187 1.929-1.039c.445.149 1.038 1.484.89 1.929s-1.484 1.038-1.929.89-.89-.742-.89-1.632c-.148-3.56 8.603-16.761 12.46-27.59 5.34-14.536 9.493-36.637 14.388-52.36 4.005-13.053 10.235-26.848 12.163-35.747 1.038-4.895.297-6.972 1.187-11.867 1.483-7.713 5.043-22.546 7.861-29.814 1.78-4.598 3.857-10.087 5.637-10.828.89-.297 2.373.741 2.521 1.186.149.594-1.038 1.929-2.225 2.522-1.928 1.038-6.378-.593-9.048 1.187-4.005 3.115-5.785 13.498-9.641 20.173-4.153 7.12-10.383 13.201-14.388 21.062-4.45 8.455-7.268 18.542-10.383 28.48-3.263 10.828-5.043 24.326-8.455 34.264-2.818 8.01-8.455 16.465-9.641 21.063-.594 1.928.296 3.708-.297 4.598-.445.445-1.483.742-1.928.593-.445-.148-.89-1.335-.89-1.335"/>
    </clipPath>
    <clipPath id="af">
      <path d="M183.6 6.48h67.44V177.6H183.6Z"/>
    </clipPath>
    <clipPath id="ag">
      <path d="M145.107 18.28h45.849v107.577h-45.85Z"/>
    </clipPath>
    <clipPath id="ah">
      <path d="M145.893 24.771c19.135-7.12 19.432-6.675 19.877-5.785.593 1.484-.445 4.153 0 7.713 1.038 7.862 6.971 25.365 9.344 37.528 2.077 11.421 1.632 22.991 4.302 33.226 2.67 9.493 11.57 22.843 11.273 26.55 0 .89-.593 1.78-1.038 1.78s-1.78-1.78-1.632-2.076c.148-.445 2.373-.297 2.67.148.297.297-.148 1.484-.445 1.632-.445.297-1.335.297-2.225-.297-2.67-2.224-8.01-14.684-10.828-24.474-3.857-13.201-4.598-35.006-7.416-48.504-2.077-9.79-6.082-19.728-6.972-25.364-.445-2.67-.297-4.747-.148-6.23.148-.742.296-1.78.445-1.78.296 0 1.186 1.038 1.038 1.632-.742 1.78-11.57 5.784-14.981 6.674-1.632.445-3.264.89-3.709.445s.445-2.818.445-2.818"/>
    </clipPath>
    <clipPath id="ai">
      <path d="M144.96 18.24h46.08V126h-46.08Z"/>
    </clipPath>
    <clipPath id="aj">
      <path d="M180.61 13.588h59.021v95.152H180.61Z"/>
    </clipPath>
    <clipPath id="ak">
      <path d="M180.751 106.65c16.168-36.787 18.393-49.988 22.546-61.113 4.005-10.68 7.12-26.55 14.091-30.704 5.489-3.115 18.542.445 21.063 1.928.742.445 1.039 1.039 1.039 1.484-.149.445-1.187 1.483-1.632 1.335-.593 0-1.483-1.187-1.335-1.632 0-.593 1.335-1.335 1.78-1.187.445 0 1.335 1.335 1.038 1.78-.445 1.039-7.565 1.335-10.976 1.039-3.263-.297-7.12-3.709-9.197-2.522-2.373 1.335-1.928 7.268-3.708 11.421-2.225 5.34-6.23 10.532-9.345 17.948-4.598 10.977-8.751 31.15-13.35 42.423-2.966 7.713-6.97 17.058-9.344 19.134q-1.113.89-1.78.445c-.593-.148-.89-1.78-.89-1.78"/>
    </clipPath>
    <clipPath id="al">
      <path d="M180.72 13.44h59.04v95.52h-59.04Z"/>
    </clipPath>
    <clipPath id="am">
      <path d="M163.655 26.991h29.16V85.31h-29.16Z"/>
    </clipPath>
    <clipPath id="an">
      <path d="M165.325 26.996c16.761 0 16.761.445 17.058 1.335.89 2.818.296 9.79 1.186 16.316 1.632 10.235 10.532 34.561 8.9 38.863-.297 1.186-1.78 1.78-2.077 1.631-.445-.148-.593-2.225-.296-2.521.445-.297 2.225.296 2.373.741s-.89 1.929-1.483 1.929c-.89-.149-2.225-3.412-3.264-6.527-2.224-6.526-5.488-23.288-6.823-32.632-.89-6.675-2.67-16.317-1.483-17.503.445-.297 1.632.148 1.632.296 0 .297-13.647 1.929-16.02 1.039-.742-.445-1.335-1.039-1.335-1.484 0-.593 1.632-1.483 1.632-1.483"/>
    </clipPath>
    <clipPath id="ao">
      <path d="M163.68 26.88h29.28v58.56h-29.28Z"/>
    </clipPath>
    <clipPath id="ap">
      <path d="M182.587 7.75h31.705v44.89h-31.705Z"/>
    </clipPath>
    <clipPath id="aq">
      <path d="M182.68 50.877c6.526-23.288 3.263-35.45 6.674-38.862 2.818-2.67 9.493-.149 13.646-.89 3.412-.594 7.714-4.302 9.642-3.115 2.225 1.631 1.632 12.163.89 14.536-.297.742-.593 1.335-1.038 1.335-.594.148-1.78-.593-1.929-1.038 0-.445 1.187-1.78 1.78-1.78.445 0 1.335 1.483 1.187 1.78-.297.296-2.225.741-2.818.148-1.484-1.335-1.039-12.46-.149-12.905.445-.148 1.484.445 1.335.742 0 .742-4.45 2.373-7.268 2.967-3.708.89-10.383-1.78-12.905.741-3.115 3.115.297 14.24-.89 20.618-1.038 5.933-3.56 14.685-5.34 16.613-.593.742-1.334 1.038-1.78.742-.444-.149-1.038-1.632-1.038-1.632"/>
    </clipPath>
    <clipPath id="ar">
      <path d="M182.64 7.68h31.68V52.8h-31.68Z"/>
    </clipPath>
    <clipPath id="as">
      <path d="M155.718 318.607h15.735v19.614h-15.735Z"/>
    </clipPath>
    <clipPath id="at">
      <path d="M171.406 320.096c-1.038 9.048-2.225 11.866-3.708 13.498-1.335 1.632-3.115 2.67-4.895 3.412-1.78.741-4.746 1.483-5.785 1.038-.741-.297-1.335-.89-1.186-1.335 0-.593 1.483-1.78 1.928-1.483.445.148.593 2.225.297 2.67-.297.296-1.484.148-1.78-.297-.297-.297-.445-1.632 0-2.077.593-.89 3.708-.445 5.488-1.186 1.78-.89 3.708-1.929 4.895-3.709 1.483-2.521.89-9.641 1.928-11.124.445-.594 1.038-.89 1.483-.89.445.148 1.335 1.483 1.335 1.483"/>
    </clipPath>
    <clipPath id="au">
      <path d="M155.52 318.48h16.08v19.92h-16.08Z"/>
    </clipPath>
    <clipPath id="av">
      <path d="M169.735 319.262h4.076v18.069h-4.076Z"/>
    </clipPath>
    <clipPath id="aw">
      <path d="M173.78 320.838c-.89 15.871-1.632 16.464-2.077 16.464-.445-.148-1.335-1.335-1.335-1.78.148-.445 1.483-1.335 1.928-1.186.445.148 1.038 1.928.89 2.225-.297.445-2.076.296-2.67-.445-1.186-1.335-.593-6.824-.445-9.642.149-2.373.149-5.488 1.039-6.526.296-.594 1.038-.742 1.483-.594.445 0 1.186 1.484 1.186 1.484"/>
    </clipPath>
    <clipPath id="ax">
      <path d="M169.68 319.2H174v18.24h-4.32Z"/>
    </clipPath>
    <clipPath id="ay">
      <path d="M172.683 318.703h13.415v29.18h-13.415Z"/>
    </clipPath>
    <clipPath id="az">
      <path d="M179.12 319.948c2.521 10.828 5.34 11.718 6.08 13.053.594.89 1.04 1.78.743 2.67-.594 1.928-5.34 4.153-7.12 6.378-1.632 1.78-2.374 5.34-3.56 5.785-.742.148-2.374-.742-2.522-1.187 0-.445 1.632-1.483 2.077-1.335s.89 2.077.593 2.373c-.445.297-2.373-.148-2.67-.89-.445-1.186 2.373-5.043 4.153-6.971 1.632-2.077 6.082-3.857 6.082-5.043-.148-.742-2.225-.89-3.115-1.78-1.038-1.039-2.077-2.967-2.67-4.895-.742-2.373-1.632-7.12-.89-8.455.297-.593 1.187-1.038 1.632-.89.445 0 1.186 1.187 1.186 1.187"/>
    </clipPath>
    <clipPath id="aA">
      <path d="M172.56 318.48h13.68V348h-13.68Z"/>
    </clipPath>
    <clipPath id="aB">
      <path d="M172.472 320.39h5.464v18.324h-5.464Z"/>
    </clipPath>
    <clipPath id="aC">
      <path d="M175.708 321.876c2.373 12.46 2.521 15.723 1.78 16.168-.594.297-2.67-.742-2.67-1.038s2.225-1.187 2.521-.89c.297.296-.593 2.373-1.038 2.521-.297.149-1.038-.296-1.483-1.038-1.187-2.077-2.967-13.35-2.077-15.723.445-.89 1.187-1.483 1.78-1.483.445.148 1.187 1.483 1.187 1.483"/>
    </clipPath>
    <clipPath id="aD">
      <path d="M172.32 320.16h5.76v18.72h-5.76Z"/>
    </clipPath>
    <clipPath id="aE">
      <path d="M187.878 321.507h5.792v25.374h-5.792Z"/>
    </clipPath>
    <clipPath id="aF">
      <path d="M191.727 323.211c-.445 7.268 2.077 10.383 1.929 12.608-.149 1.78-2.077 2.967-2.522 4.598-.297 1.929 1.483 5.34.742 6.082-.594.445-2.67 0-2.819-.445-.148-.297.89-1.632 1.335-1.632s1.632 1.483 1.484 1.928c-.149.297-1.929.742-2.67.297-1.039-.742-1.483-4.598-1.187-6.675.297-1.928 2.522-3.411 2.67-5.191 0-1.632-2.077-3.412-2.373-5.044-.445-1.78-.297-3.708.148-5.191.148-1.187.742-2.818 1.335-2.967.445-.148 1.928 1.632 1.928 1.632"/>
    </clipPath>
    <clipPath id="aG">
      <path d="M187.68 321.36h6v25.68h-6Z"/>
    </clipPath>
    <clipPath id="aH">
      <path d="M180.855 320.497h8.031v22.868h-8.03Z"/>
    </clipPath>
    <clipPath id="aI">
      <path d="M183.57 321.134c5.784 13.202 5.932 19.728 4.597 21.36-.593.741-2.224 1.038-2.521.741-.297-.296.148-2.224.593-2.373.445-.148 2.077 1.632 1.928 1.928-.148.445-2.076.742-2.67.297-1.334-1.186.89-8.455 0-12.015-.741-3.263-4.746-7.268-4.598-9.048 0-.741.742-1.483 1.187-1.483.445-.148 1.483.593 1.483.593"/>
    </clipPath>
    <clipPath id="aJ">
      <path d="M180.72 320.4h8.4v23.04h-8.4Z"/>
    </clipPath>
    <clipPath id="aK">
      <path d="M193.023 321.399h8.075v24.379h-8.075Z"/>
    </clipPath>
    <clipPath id="aL">
      <path d="M196.177 322.914c2.522 13.35.89 15.13 1.187 16.762.445 1.78 3.708 3.56 3.708 4.746 0 .593-.741 1.187-1.186 1.335-.445 0-1.632-.742-1.78-1.187 0-.593.89-1.78 1.335-1.78s1.631.89 1.631 1.484c0 .445-1.186 1.483-1.928 1.335-1.187 0-3.857-1.929-4.45-3.56-.742-2.077 1.187-5.043 1.038-7.862-.148-3.411-3.263-9.344-2.521-11.273.296-.89 1.038-1.483 1.631-1.483.445 0 1.335 1.483 1.335 1.483"/>
    </clipPath>
    <clipPath id="aM">
      <path d="M192.96 321.36h8.16v24.48h-8.16Z"/>
    </clipPath>
    <clipPath id="aN">
      <path d="M166.956 173.472h35.97v150.37h-35.97Z"/>
    </clipPath>
    <clipPath id="aO">
      <path d="M168.44 316.462c32.039 1.632 29.517-6.378 28.924-11.866-.445-5.934-1.038-17.948-3.263-18.542-1.632-.445-4.895 7.12-6.972 8.455-1.038.89-2.225 1.632-2.966 1.187-1.039-.594-1.632-3.857-1.632-6.527 0-4.746 2.373-14.24 4.895-19.431 1.928-4.005 5.488-4.747 7.416-9.79 4.154-10.828 4.154-43.015 4.747-57.255.297-8.455 1.335-15.426-.148-20.321-1.039-2.967-4.599-5.044-4.599-6.675-.148-.89.742-2.225 1.187-2.225s1.483 1.928 1.335 2.373c-.148.297-2.373.297-2.522 0s1.187-2.225 1.929-2.225c1.038 0 3.115 2.67 4.153 4.302 1.038 1.928 1.335 3.56 1.631 6.675.742 6.378.149 19.282-.444 30.407-.742 13.795-.594 36.934-4.302 46.13-1.928 4.6-5.637 5.49-7.565 9.197-2.225 4.154-4.005 10.68-4.598 14.982-.297 3.115 1.038 7.268.148 8.158-.296.296-1.335.296-1.483 0-.445-.89 4.153-7.862 6.675-9.197 1.631-1.038 4.005-1.335 5.34-.445 1.928 1.484 2.373 6.527 3.115 10.828 1.038 6.23 1.483 18.393 1.038 23.14-.148 2.225.148 3.856-1.038 4.895-1.335 1.186-4.154 1.038-7.269.89-5.636-.149-21.36-2.374-24.03-4.153-.889-.445-1.186-1.187-1.186-1.632s1.484-1.335 1.484-1.335"/>
    </clipPath>
    <clipPath id="aP">
      <path d="M166.8 173.28h36.24V324H166.8Z"/>
    </clipPath>
    <clipPath id="aQ">
      <path d="M197.994 255.677h20.774v17.693h-20.774Z"/>
    </clipPath>
    <clipPath id="aR">
      <path d="M198.106 272.037c4.895-12.015 6.378-13.201 8.454-14.091 2.67-1.335 7.862-2.967 9.79-1.929 1.483.742 2.077 3.412 2.373 5.044.149 1.186-.148 2.521-.741 3.56-.593 1.038-1.483 1.631-2.967 2.521-2.966 1.929-12.904 6.972-14.833 6.082-.741-.445-1.186-2.374-.89-2.67.297-.297 1.929 0 2.077.445.297.445-.148 1.78-.593 2.076-.445.149-1.78-.296-1.929-.741-.296-.445-.148-1.187.297-1.78 1.483-1.632 10.235-3.263 13.053-5.043 1.632-1.039 2.967-2.077 3.412-3.412.296-1.038.148-2.967-.742-3.412-1.335-.741-6.23 1.187-8.455 2.67-2.077 1.484-3.708 4.005-4.598 6.082-.89 1.78-.297 5.043-1.187 5.488-.593.445-2.521-.89-2.521-.89"/>
    </clipPath>
    <clipPath id="aS">
      <path d="M198 255.6h20.88v18H198Z"/>
    </clipPath>
    <clipPath id="aT">
      <path d="M198.485 268.711h56.437v26.68h-56.437Z"/>
    </clipPath>
    <clipPath id="aU">
      <path d="M200.034 282.272c14.091-9.79 19.58-10.68 24.771-11.57 5.488-.89 12.311-2.818 16.91-1.335 4.005 1.483 7.564 6.082 9.641 8.9a18.6 18.6 0 0 1 3.115 5.785c.297 1.483.742 2.818.148 4.153-1.038 1.928-4.746 4.005-7.565 5.192-3.263 1.335-7.416 2.521-11.124 1.631-4.45-1.186-7.862-8.01-13.202-10.086-6.526-2.373-22.397.741-23.88-1.335-.594-.593 0-2.225.444-2.373.445-.149 2.077.89 2.077 1.483 0 .445-1.632 1.483-2.077 1.335-.296-.297-.593-2.077-.148-2.67.742-.89 3.115-.742 5.488-.742 4.005-.148 11.718-.593 16.761 1.187 5.044 1.78 9.197 7.861 13.202 9.345 2.966 1.038 5.636 1.186 8.455.593 3.114-.89 8.454-3.412 9.048-5.637.593-1.928-1.632-4.301-3.115-6.378-1.78-2.521-4.005-6.081-7.268-7.416-4.302-1.484-11.867.296-17.355 1.335-5.34 1.038-11.421 2.373-15.426 4.598-2.967 1.632-5.34 5.933-6.972 6.23-.89.148-1.631-.149-1.928-.445-.297-.445 0-1.78 0-1.78"/>
    </clipPath>
    <clipPath id="aV">
      <path d="M198.48 268.56h56.64v26.88h-56.64Z"/>
    </clipPath>
    <clipPath id="aW">
      <path d="M201.1 288.53h28.604v27.533H201.1Z"/>
    </clipPath>
    <clipPath id="aX">
      <path d="M202.852 288.65c18.393 5.637 22.25 7.862 24.326 10.828 1.929 2.818 2.819 7.862 2.374 10.532-.297 1.78-1.484 3.114-2.67 4.153-1.335 1.038-3.264 1.78-4.895 1.78-1.78 0-3.709-.742-5.34-1.78-1.78-1.335-3.412-3.56-4.598-5.933-1.335-2.819-.594-7.714-2.374-10.383-1.928-2.522-8.603-4.45-8.454-5.637 0-.445 1.78-1.335 2.224-1.038.297.148.445 2.076.149 2.373s-2.225-.297-2.373-.593c0-.445 1.038-1.78 2.076-1.929 1.78-.148 6.823 2.819 8.9 5.489 2.225 2.966 1.483 9.196 3.412 12.014 1.483 2.077 3.708 4.154 5.636 4.302 1.78.148 4.598-1.483 5.34-2.967.89-1.335.297-4.153-.297-5.785-.296-1.335-1.038-2.521-2.076-3.708-1.632-1.632-4.302-3.56-7.269-4.895-4.004-1.928-13.498-2.373-15.13-4.005-.592-.593-.74-1.483-.444-1.928.148-.445 1.483-.89 1.483-.89"/>
    </clipPath>
    <clipPath id="aY">
      <path d="M200.88 288.48h29.04v27.6h-29.04Z"/>
    </clipPath>
    <clipPath id="aZ">
      <path d="M222.676 252.44h12.268v11.81h-12.268Z"/>
    </clipPath>
    <clipPath id="ba">
      <path d="M226.585 257.204c-.89 2.522-.148 3.263.445 3.56.89.445 2.818 1.038 3.56.445.741-.593 1.335-3.857.593-4.895-.742-1.186-4.598-.742-5.34-1.483-.445-.593-.296-1.483-.148-1.78.445-.445 1.928-.742 2.225-.445.297.445-.297 2.67-.593 2.67-.445.148-1.929-1.78-1.632-2.077.297-.741 5.488-.296 6.823.445.593.297.89.742 1.187 1.484.593 1.186 1.483 3.708 1.038 5.191-.593 1.483-2.373 3.412-4.005 3.857-1.78.296-5.488-.89-6.675-2.225s-1.631-4.154-1.038-5.34c.445-1.187 2.67-2.373 3.412-2.225.593 0 1.186 1.038 1.186 1.483s-1.038 1.335-1.038 1.335"/>
    </clipPath>
    <clipPath id="bb">
      <path d="M222.48 252.24h12.48v12.24h-12.48Z"/>
    </clipPath>
    <clipPath id="bc">
      <path d="M175.893 218.735h11.259v11.968h-11.259Z"/>
    </clipPath>
    <clipPath id="bd">
      <path d="M179.268 223.385c1.483 5.488 3.263 4.895 4.005 4.153.741-.89 1.186-4.005.445-5.043-1.039-1.187-6.23.445-7.269-.593-.593-.594-.593-2.374-.296-2.67.445-.149 2.225.593 2.373 1.038 0 .445-1.483 1.78-1.928 1.78-.297-.148-.89-2.077-.445-2.67.593-.89 4.895-.593 6.675-.297 1.186.297 2.076.594 2.818 1.335.742.594 1.038 1.78 1.187 2.967.296 1.335.593 3.56-.297 4.895s-3.857 2.225-5.488 2.373c-1.187.148-2.67-.148-3.412-.89s-.89-2.225-1.038-3.412c-.149-1.334-.445-3.56.148-4.004.445-.297 2.522 1.038 2.522 1.038"/>
    </clipPath>
    <clipPath id="be">
      <path d="M175.68 218.64h11.52v12.24h-11.52Z"/>
    </clipPath>
    <clipPath id="bf">
      <path d="M188.631 219.056h10.513v14.6H188.63Z"/>
    </clipPath>
    <clipPath id="bg">
      <path d="M193.359 220.863c-.742 9.642 1.928 10.532 2.522 9.938.741-.445.296-3.856-.594-5.191-1.038-1.483-5.191-2.225-5.34-3.263 0-.594 1.632-1.929 2.077-1.78.445.148.89 1.631.742 2.076-.297.445-1.632.742-2.077.594s-.89-1.187-.742-1.632 1.039-1.038 1.929-1.038c1.483 0 5.191 2.373 6.378 4.301 1.038 1.928 1.038 5.785.297 7.12-.594 1.038-1.78 1.632-2.967 1.632-1.78 0-5.488-1.632-6.527-3.56-1.038-2.374.445-8.752 1.632-10.235.445-.593 1.335-.89 1.78-.593.445.148.89 1.631.89 1.631"/>
    </clipPath>
    <clipPath id="bh">
      <path d="M188.4 218.88h10.8v14.88h-10.8Z"/>
    </clipPath>
    <clipPath id="bi">
      <path d="M185.233 234.444h6.645v21.772h-6.645Z"/>
    </clipPath>
    <clipPath id="bj">
      <path d="M188.76 235.993c.594 10.68 3.116 12.163 3.116 14.091 0 1.929-2.077 5.637-3.264 5.933-.593.297-1.78-.445-1.928-.89-.148-.444.593-1.78 1.038-1.928.594-.148 1.78.742 1.78 1.187.149.445-.741 1.631-1.186 1.78-.445 0-1.632-.742-1.632-1.335-.148-.89 2.225-1.928 2.373-3.263.297-1.78-2.67-4.302-3.263-6.824-.593-2.67-.741-7.12 0-8.751.297-.89 1.187-1.632 1.632-1.483.445 0 1.335 1.483 1.335 1.483"/>
    </clipPath>
    <clipPath id="bk">
      <path d="M185.04 234.24H192v22.08h-6.96Z"/>
    </clipPath>
    <clipPath id="bl">
      <path d="M180.728 223.066h3.336v3.16h-3.336Z"/>
    </clipPath>
    <clipPath id="bm">
      <path d="M182.68 223.088c1.334 2.077-.297 3.115-.742 2.818-.297-.148-.742-2.076-.297-2.373.297-.296 2.225.149 2.373.594s-1.186 1.928-1.78 2.076c-.445 0-1.483-.89-1.483-1.335-.148-.593 1.038-1.78 1.038-1.78"/>
    </clipPath>
    <clipPath id="bn">
      <path d="M180.72 222.96h3.36v3.36h-3.36Z"/>
    </clipPath>
    <clipPath id="bo">
      <path d="M194.698 226.059h2.866v2.417h-2.866Z"/>
    </clipPath>
    <clipPath id="bp">
      <path d="M197.512 226.945c-1.186 1.928-2.373 1.631-2.67 1.186s0-1.631.445-1.928c.297-.297 1.929.148 1.929.148"/>
    </clipPath>
    <clipPath id="bq">
      <path d="M194.64 225.84h2.88v2.64h-2.88Z"/>
    </clipPath>
  </defs>
  <g clip-path="url(#c)">
    <title>Root</title>
    <g style="" clip-path="url(#d)">
      <title>Leaf Colors</title>
      <g clip-path="url(#e)" style="">
        <title>Leaf Top</title>
        <g clip-path="url(#f)" style="">
          <path d="M114.3 14.091h67.934v126.583H114.3Z" fill="white" clip-path="url(#g)"/>
          <path d="M114.3 14.091h67.934v126.583H114.3Z" fill="#406b36" clip-path="url(#g)" opacity=".5" style=""/>
        </g>
      </g>
      <g clip-path="url(#h)" style="">
        <title>Leaf Top</title>
        <g clip-path="url(#i)">
          <path d="M140.109 12.905h63.781v98.662h-63.78Z" fill="white" clip-path="url(#j)"/>
          <path d="M140.109 12.905h63.781v98.662h-63.78Z" fill="#406b36" style="" clip-path="url(#j)" opacity=".5"/>
        </g>
      </g>
      <g clip-path="url(#k)" style="">
        <title>Leaf Top</title>
        <g clip-path="url(#l)">
          <path d="M170.813 0h59.184v110.738h-59.184Z" fill="white" clip-path="url(#m)"/>
          <path d="M170.813 0h59.184v110.738h-59.184Z" fill="#406b36" clip-path="url(#m)" opacity=".5"/>
        </g>
      </g>
      <g clip-path="url(#n)" style="">
        <title>Leaf Top</title>
        <g clip-path="url(#o)">
          <path d="M174.818 19.876h79.356v109.735h-79.356Z" fill="white" clip-path="url(#p)"/>
          <path d="M174.818 19.876h79.356v109.735h-79.356Z" fill="#406b36" clip-path="url(#p)" opacity=".5"/>
        </g>
      </g>
      <g clip-path="url(#q)" style="">
        <title>Leaf Middle</title>
        <g clip-path="url(#r)">
          <path d="M178.674 72.83h64.969v79.688h-64.969Z" fill="white" clip-path="url(#s)"/>
          <path d="M178.674 72.83h64.969v79.688h-64.969Z" fill="#406b36" clip-path="url(#s)" opacity=".5"/>
        </g>
      </g>
      <g clip-path="url(#t)" style="">
        <title>Leaf Middle</title>
        <g clip-path="url(#u)">
          <path d="M149.157 85.883H203v64.57h-53.843Z" fill="white" clip-path="url(#v)"/>
          <path d="M149.157 85.883H203v64.57h-53.843Z" fill="#406b36" clip-path="url(#v)" opacity=".5"/>
        </g>
      </g>
      <g clip-path="url(#w)" style="">
        <title>Leaf Middle</title>
        <g clip-path="url(#x)">
          <path d="M138.774 111.99h59.332v80.19h-59.332Z" fill="white" clip-path="url(#y)"/>
          <path d="M138.774 111.99h59.332v80.19h-59.332Z" fill="#b9cf7e" clip-path="url(#y)" opacity=".5"/>
        </g>
      </g>
      <g clip-path="url(#z)" style="">
        <title>Leaf Middle</title>
        <g clip-path="url(#A)">
          <path d="M147.08 108.28h66.155v78.82H147.08Z" fill="white" clip-path="url(#B)"/>
          <path d="M147.08 108.28h66.155v78.82H147.08Z" fill="#b9cf7e" clip-path="url(#B)" opacity=".5"/>
        </g>
      </g>
      <g clip-path="url(#C)" style="">
        <title>Leaf Middle</title>
        <g clip-path="url(#D)">
          <path d="M173.038 116.587h55.624v71.268h-55.624Z" fill="white" clip-path="url(#E)"/>
          <path d="M173.038 116.587h55.624v71.268h-55.624Z" fill="#b9cf7e" clip-path="url(#E)" opacity=".5"/>
        </g>
      </g>
      <g clip-path="url(#I)" style="">
        <title>Leaf Middle</title>
        <g clip-path="url(#J)">
          <path d="M157.315 162.421h51.915v53.944h-51.915Z" fill="white" clip-path="url(#K)"/>
          <path d="M157.315 162.421h51.915v53.944h-51.915Z" fill="#dbdbb7" clip-path="url(#K)" opacity=".5"/>
        </g>
      </g>
      <g clip-path="url(#F)" style="">
        <title>Trunk</title>
        <g clip-path="url(#G)">
          <path d="M160.875 182.446h46.13v151.726h-46.13Z" fill="white" clip-path="url(#H)"/>
          <path d="M160.875 182.446h46.13v151.726h-46.13Z" fill="#dbdbb7" clip-path="url(#H)" opacity=".5"/>
        </g>
      </g>
    </g>
    <g>
      <title>Drops</title>
      <g id="drop-1" style="">
        <title>Drop-1</title>
        <g clip-path="url(#L)" style="">
          <title>Drop Color</title>
          <g clip-path="url(#M)">
            <path d="M197.66 282.569h36.49v38.77h-36.49Z" fill="white" clip-path="url(#N)"/>
            <path d="M197.66 282.569h36.49v38.77h-36.49Z" fill="#d3ab02" clip-path="url(#N)" opacity=".5"/>
          </g>
        </g>
        <g clip-path="url(#aW)" style="">
          <title>Outline Drop</title>
          <g clip-path="url(#aX)">
            <path d="M195.287 282.717h40.383v39.159h-40.383Z" fill="white" clip-path="url(#aY)"/>
            <path d="M195.287 282.717h40.383v39.159h-40.383Z" clip-path="url(#aY)"/>
          </g>
        </g>
      </g>
      <g id="drop-2" style="">
        <title>Drop-2</title>
        <g clip-path="url(#O)" style="">
          <title>Drop Color</title>
          <g clip-path="url(#P)">
            <path d="M194.694 265.956h63.317v34.56h-63.317Z" fill="white" clip-path="url(#Q)"/>
            <path d="M194.694 265.956h63.317v34.56h-63.317Z" fill="#d3ab02" clip-path="url(#Q)" opacity=".5"/>
          </g>
        </g>
        <g clip-path="url(#aT)" style="">
          <title>Outline Drop</title>
          <g clip-path="url(#aU)">
            <path d="M192.914 263.434h67.725v37.527h-67.725Z" fill="white" clip-path="url(#aV)"/>
            <path d="M192.914 263.434h67.725v37.527h-67.725Z" clip-path="url(#aV)"/>
          </g>
        </g>
      </g>
      <g id="drop-3" style="">
        <title>Drop-3</title>
        <g clip-path="url(#U)" style="">
          <title>Drop Color</title>
          <g clip-path="url(#V)">
            <path d="M217.685 246.97h23.592v23.139h-23.592Z" fill="white" clip-path="url(#W)"/>
            <path d="M217.685 246.97h23.592v23.139h-23.592Z" fill="#d3ab02" clip-path="url(#W)" opacity=".5"/>
          </g>
        </g>
        <g clip-path="url(#aZ)" style="">
          <title>Outline Drop</title>
          <g clip-path="url(#ba)">
            <path d="M217.092 246.673h23.71v23.436h-23.71Z" fill="white" clip-path="url(#bb)"/>
            <path d="M217.092 246.673h23.71v23.436h-23.71Z" clip-path="url(#bb)"/>
          </g>
        </g>
      </g>
      <g id="drop-4" style="">
        <title>Drop-4</title>
        <g clip-path="url(#R)" style="">
          <title>Drop Color</title>
          <g clip-path="url(#S)">
            <path d="M193.952 250.38h28.885v28.332h-28.885Z" fill="white" clip-path="url(#T)"/>
            <path d="M193.952 250.38h28.885v28.332h-28.885Z" fill="#d3ab02" clip-path="url(#T)" opacity=".5"/>
          </g>
        </g>
        <g clip-path="url(#aQ)" style="">
          <title>Outline Drop</title>
          <g clip-path="url(#aR)">
            <path d="M192.172 250.084h32.532v29.221h-32.532Z" fill="white" clip-path="url(#aS)"/>
            <path d="M192.172 250.084h32.532v29.221h-32.532Z" clip-path="url(#aS)"/>
          </g>
        </g>
      </g>
    </g>
    <g clip-path="url(#d)">
      <title>Outlines</title>
      <g clip-path="url(#X)" style="">
        <title>Outline</title>
        <g clip-path="url(#Y)">
          <path d="M116.82 13.646h63.486v313.955h-63.485Z" clip-path="url(#Z)"/>
        </g>
      </g>
      <g clip-path="url(#aa)" style="">
        <title>Outline</title>
        <g clip-path="url(#ab)">
          <path d="M116.227 5.933h88.257v177.202h-88.257Z" clip-path="url(#ac)"/>
        </g>
      </g>
      <g clip-path="url(#ad)" style="">
        <title>Outline</title>
        <g clip-path="url(#ae)">
          <path d="M177.784 1.632h78.912V183.19h-78.912Z" clip-path="url(#af)"/>
        </g>
      </g>
      <g clip-path="url(#ag)" style="">
        <title>Outline</title>
        <g clip-path="url(#ah)">
          <path d="M139.515 11.57h57.256v120.325h-57.256Z" clip-path="url(#ai)"/>
        </g>
      </g>
      <g clip-path="url(#aj)" style="">
        <title>Outline</title>
        <g clip-path="url(#ak)">
          <path d="M174.818 8.9h70.605v105.632h-70.605Z" clip-path="url(#al)"/>
        </g>
      </g>
      <g clip-path="url(#am)" style="">
        <title>Outline</title>
        <g clip-path="url(#an)">
          <path d="M157.76 20.618h40.79v70.746h-40.79Z" clip-path="url(#ao)"/>
        </g>
      </g>
      <g clip-path="url(#ap)" style="">
        <title>Outline</title>
        <g clip-path="url(#aq)">
          <path d="M176.746 2.077h42.72v56.569h-42.72Z" clip-path="url(#ar)"/>
        </g>
      </g>
      <g clip-path="url(#aN)" style="">
        <title>Outline</title>
        <g clip-path="url(#aO)">
          <path d="M161.023 167.539h47.466v162.05h-47.466Z" clip-path="url(#aP)"/>
        </g>
      </g>
    </g>
    <g clip-path="url(#d)">
      <title>Stump</title>
      <g clip-path="url(#as)" style="">
        <title>Stump</title>
        <g clip-path="url(#at)">
          <path d="M149.898 312.68h27.59v31.253h-27.59Z" clip-path="url(#au)"/>
        </g>
      </g>
      <g clip-path="url(#av)" style="">
        <title>Stump</title>
        <g clip-path="url(#aw)">
          <path d="M164.138 313.421h15.575v29.933h-15.575Z" clip-path="url(#ax)"/>
        </g>
      </g>
      <g clip-path="url(#ay)" style="">
        <title>Stump</title>
        <g clip-path="url(#az)">
          <path d="M166.808 312.828h25.068v41.127h-25.068Z" clip-path="url(#aA)"/>
        </g>
      </g>
      <g clip-path="url(#aB)" style="">
        <title>Stump</title>
        <g clip-path="url(#aC)">
          <path d="M166.808 314.46h17.058v30.117h-17.058Z" clip-path="url(#aD)"/>
        </g>
      </g>
      <g clip-path="url(#aE)" style="">
        <title>Stump</title>
        <g clip-path="url(#aF)">
          <path d="M182.086 315.646h17.651v37.095h-17.651Z" clip-path="url(#aG)"/>
        </g>
      </g>
      <g clip-path="url(#aH)" style="">
        <title>Stump</title>
        <g clip-path="url(#aI)">
          <path d="M174.966 314.608h19.58v34.723h-19.58Z" clip-path="url(#aJ)"/>
        </g>
      </g>
      <g clip-path="url(#aK)" style="">
        <title>Stump</title>
        <g clip-path="url(#aL)">
          <path d="M187.278 315.498h19.876v36.18h-19.876Z" clip-path="url(#aM)"/>
        </g>
      </g>
    </g>
    <g clip-path="url(#d)">
      <title>Face</title>
      <g clip-path="url(#bc)" style="">
        <title>Eye Left</title>
        <g clip-path="url(#bd)">
          <path d="M170.22 213.15h22.694v23.404H170.22Z" clip-path="url(#be)"/>
        </g>
      </g>
      <g clip-path="url(#bf)" style="">
        <title>Eye Right</title>
        <g clip-path="url(#bg)">
          <path d="M183.124 213.298h21.36v26.366h-21.36Z" clip-path="url(#bh)"/>
        </g>
      </g>
      <g clip-path="url(#bi)" style="">
        <title>Nose</title>
        <g clip-path="url(#bj)">
          <path d="M179.861 228.576h18.096v33.648h-18.096Z" clip-path="url(#bk)"/>
        </g>
      </g>
      <g clip-path="url(#bl)" style="">
        <title>Iris Left</title>
        <g clip-path="url(#bm)">
          <path d="M174.818 217.155h15.45v14.981h-15.45Z" clip-path="url(#bn)"/>
        </g>
      </g>
      <g clip-path="url(#bo)" style="">
        <title>Iris Right</title>
        <g clip-path="url(#bp)">
          <path d="M188.91 220.27h14.668v14.388H188.91Z" clip-path="url(#bq)"/>
        </g>
      </g>
    </g>
  </g>
</svg>